<svg width="20" height="20" viewBox="0 0 20 20" fill="none" xmlns="http://www.w3.org/2000/svg">
<g id="icn_20_apple">
<path id="Union" d="M15.592 15.4168C14.9004 16.4502 14.167 17.4585 13.0504 17.4752C11.9337 17.5002 11.5754 16.8168 10.3087 16.8168C9.0337 16.8168 8.64203 17.4585 7.5837 17.5002C6.49203 17.5418 5.66703 16.4002 4.96703 15.3918C3.54203 13.3335 2.45036 9.54183 3.91703 6.99183C4.64203 5.72516 5.94203 4.92516 7.35036 4.90016C8.41703 4.8835 9.4337 5.62516 10.092 5.62516C10.742 5.62516 11.9754 4.7335 13.267 4.86683C13.8087 4.89183 15.3254 5.0835 16.3004 6.51683C16.2254 6.56683 14.492 7.5835 14.5087 9.69183C14.5337 12.2085 16.717 13.0502 16.742 13.0585C16.717 13.1168 16.392 14.2585 15.592 15.4168ZM10.8337 2.0835C11.442 1.39183 12.4504 0.866829 13.2837 0.833496C13.392 1.8085 13.0004 2.79183 12.417 3.49183C11.842 4.20016 10.892 4.75016 9.9587 4.67516C9.8337 3.71683 10.3004 2.71683 10.8337 2.0835Z" fill="white"/>
</g>
</svg>
